Coordinates
version=1
nRows=20
nColumns=32
inDegrees=yes

Units are S.I. units (second, meters, Newtons, ...)
If the header above contains a line with 'inDegrees', this indicates whether rotational values are in degrees (yes) or radians (no).

endheader
time	pelvis_tilt	pelvis_list	pelvis_rotation	pelvis_tx	pelvis_ty	pelvis_tz	hip_flexion_r	hip_adduction_r	hip_rotation_r	knee_angle_r	ankle_angle_r	subtalar_angle_r	mtp_angle_r	hip_flexion_l	hip_adduction_l	hip_rotation_l	knee_angle_l	ankle_angle_l	subtalar_angle_l	mtp_angle_l	lumbar_extension	lumbar_bending	lumbar_rotation	arm_flex_r	arm_add_r	arm_rot_r	elbow_flex_r	arm_flex_l	arm_add_l	arm_rot_l	elbow_flex_l
      6.90000000	     -6.39981301	      4.01350271	     88.90724494	     -0.00665446	      0.99700141	     -0.07292983	     17.49265925	     -9.06239068	     -5.02903039	    -66.85272713	     -2.84581576	     -9.30605573	      0.00000000	      9.98898861	      8.56366585	     -7.48336355	    -17.02146204	      1.20214384	     -9.56249699	      0.00000000	    -12.29972471	     -7.86404564	      5.46955434	      0.00000000	      0.00000000	      0.00000000	      0.00000000	      0.00000000	      0.00000000	      0.00000000	      0.00000000
      6.91000000	     -6.34090875	      4.11091927	     88.91924139	     -0.00732484	      0.99780302	     -0.07900197	     18.50641439	     -8.90565580	     -4.75361545	    -66.73574776	     -1.73630995	    -10.50741363	      0.00000000	      9.34508790	      8.60408877	     -7.24149902	    -16.76173390	      1.51147623	     -9.57174427	      0.00000000	    -12.57367129	     -7.76489691	      5.21788657	      0.00000000	      0.00000000	      0.00000000	      0.00000000	      0.00000000	      0.00000000	      0.00000000	      0.00000000
      6.92000000	     -6.31652258	      4.33520585	     89.00864125	     -0.00785106	      0.99885941	     -0.08493277	     19.28550822	     -8.75751318	     -4.61364812	    -66.23964462	     -1.19590734	    -12.70250524	      0.00000000	      8.65512318	      8.65939230	     -7.17337716	    -16.65516344	      1.72797658	     -9.60684530	      0.00000000	    -13.02689937	     -7.69775876	      5.21778857	      0.00000000	      0.00000000	      0.00000000	      0.00000000	      0.00000000	      0.00000000	      0.00000000	      0.00000000
      6.93000000	     -6.26163465	      4.35409784	     89.01623576	     -0.00847946	      0.99971566	     -0.09108620	     20.20311354	     -8.52609841	     -4.30685401	    -65.41323167	     -0.66047972	    -13.01428843	      0.00000000	      8.09162418	      8.70457989	     -6.88204891	    -16.39829047	      1.87256280	     -9.60081335	      0.00000000	    -13.18461886	     -7.57037764	      5.06002844	      0.00000000	      0.00000000	      0.00000000	      0.00000000	      0.00000000	      0.00000000	      0.00000000	      0.00000000
      6.94000000	     -6.18614855	      4.36562844	     89.01832264	     -0.00834278	      1.00048763	     -0.09720540	     21.00843672	     -8.21309665	     -4.13314484	    -64.25984185	      0.18218935	    -13.38584103	      0.00000000	      7.48255926	      8.67610657	     -6.53653662	    -16.04267016	      2.12153747	     -9.70528519	      0.00000000	    -13.32823960	     -7.58066691	      5.07398641	      0.00000000	      0.00000000	      0.00000000	      0.00000000	      0.00000000	      0.00000000	      0.00000000	      0.00000000
      6.95000000	     -6.25845519	      4.40154135	     89.04803111	     -0.00873777	      1.00127694	     -0.10299621	     21.78051312	     -8.12600486	     -3.96453747	    -62.86527303	      0.35299923	    -13.36560477	      0.00000000	      7.07010716	      8.81976869	     -6.41548424	    -16.07027049	      2.22749073	     -9.75227296	      0.00000000	    -13.52889279	     -7.60936064	      5.02372311	      0.00000000	      0.00000000	      0.00000000	      0.00000000	      0.00000000	      0.00000000	      0.00000000	      0.00000000
      6.96000000	     -5.99168127	      4.58438926	     89.01688040	     -0.00864708	      1.00247327	     -0.10926067	     22.07793154	     -7.58108628	     -3.86289138	    -60.93691691	      1.37759956	    -12.95901788	      0.00000000	      6.16326840	      8.62724182	     -5.85702207	    -15.53507322	      2.51247333	    -10.17095544	      0.00000000	    -13.83672574	     -7.32303430	      5.14790041	      0.00000000	      0.00000000	      0.00000000	      0.00000000	      0.00000000	      0.00000000	      0.00000000	      0.00000000
      6.97000000	     -6.12578896	      4.54619050	     88.98627106	     -0.00872170	      1.00301988	     -0.11515928	     22.75967753	     -7.52303934	     -3.69599148	    -59.07417690	      1.33733036	    -12.77760579	      0.00000000	      5.78374860	      8.81634914	     -5.77124484	    -15.49489658	      2.58923007	    -10.20088965	      0.00000000	    -13.92702298	     -7.47978178	      4.97638494	      0.00000000	      0.00000000	      0.00000000	      0.00000000	      0.00000000	      0.00000000	      0.00000000	      0.00000000
      6.98000000	     -5.96741395	      4.40816188	     88.91643127	     -0.00860976	      1.00360886	     -0.12166570	     23.26847617	     -7.07576067	     -3.54598044	    -56.80173772	      1.56056422	    -12.30413306	      0.00000000	      5.11268332	      8.71744656	     -5.37528546	    -14.73871916	      2.64689416	    -10.29568256	      0.00000000	    -13.79084792	     -7.30894455	      4.76287217	      0.00000000	      0.00000000	      0.00000000	      0.00000000	      0.00000000	      0.00000000	      0.00000000	      0.00000000
      6.99000000	     -5.64075211	      4.74928158	     89.10990923	     -0.00900857	      1.00516449	     -0.12787275	     22.96651388	     -6.62707884	     -3.81688996	    -54.07169066	      2.04174285	    -11.27821055	      0.00000000	      4.16672400	      8.47029516	     -4.69651001	    -14.46630033	      2.69586997	    -10.86707135	      0.00000000	    -14.30387858	     -6.86405321	      4.66465632	      0.00000000	      0.00000000	      0.00000000	      0.00000000	      0.00000000	      0.00000000	      0.00000000	      0.00000000
      7.00000000	     -5.78866994	      4.57046087	     89.09429547	     -0.00903289	      1.00540717	     -0.13422317	     23.41598672	     -6.58840492	     -3.75386365	    -51.50077138	      1.95813491	    -11.10453252	      0.00000000	      3.68176210	      8.68324428	     -4.53220873	    -13.92211622	      2.82407199	    -10.91578150	      0.00000000	    -14.15921269	     -7.01887144	      4.37279745	      0.00000000	      0.00000000	      0.00000000	      0.00000000	      0.00000000	      0.00000000	      0.00000000	      0.00000000
      7.01000000	     -5.79678366	      4.38501326	     89.12222435	     -0.00916736	      1.00565559	     -0.14066220	     23.67346888	     -6.43635204	     -3.83069659	    -48.59502218	      1.87072539	    -10.96030408	      0.00000000	      3.21336076	      8.74695975	     -4.24784106	    -13.43156888	      2.92486664	    -10.99990752	      0.00000000	    -13.99584628	     -6.98330382	      4.21944128	      0.00000000	      0.00000000	      0.00000000	      0.00000000	      0.00000000	      0.00000000	      0.00000000	      0.00000000
      7.02000000	     -5.52833114	      4.49010619	     89.41070369	     -0.00958513	      1.00651313	     -0.14694363	     23.28771912	     -6.09954462	     -4.29137052	    -45.21090500	      1.47357530	    -11.01524341	      0.00000000	      2.54962686	      8.50951562	     -3.70217493	    -13.22800177	      3.01880676	    -11.22992478	      0.00000000	    -14.24021207	     -6.57740953	      3.96109270	      0.00000000	      0.00000000	      0.00000000	      0.00000000	      0.00000000	      0.00000000	      0.00000000	      0.00000000
      7.03000000	     -5.72559750	      4.22166257	     89.38387435	     -0.00959408	      1.00635154	     -0.15347446	     23.51701020	     -6.17416572	     -4.42460378	    -42.04957664	      1.30550110	    -10.84856377	      0.00000000	      2.14494758	      8.74951011	     -3.70111092	    -12.67345821	      3.17889164	    -11.24038233	      0.00000000	    -13.97776857	     -6.75837624	      3.71444424	      0.00000000	      0.00000000	      0.00000000	      0.00000000	      0.00000000	      0.00000000	      0.00000000	      0.00000000
      7.04000000	     -5.52541568	      4.18306669	     89.60753897	     -0.00970402	      1.00681695	     -0.15991973	     23.11034207	     -5.89251431	     -4.94036440	    -38.33902861	      1.18839770	    -10.31686581	      0.00000000	      1.64284736	      8.53319664	     -3.42256974	    -12.47770396	      3.32652766	    -11.15292020	      0.00000000	    -14.05573818	     -6.44113250	      3.57305172	      0.00000000	      0.00000000	      0.00000000	      0.00000000	      0.00000000	      0.00000000	      0.00000000	      0.00000000
      7.05000000	     -5.70196499	      3.88366026	     89.58542661	     -0.00953715	      1.00643604	     -0.16669715	     23.12785591	     -5.95233514	     -5.21411629	    -34.86877143	      0.95770065	     -9.78856364	      0.00000000	      1.25349053	      8.72360686	     -3.48768747	    -11.92915661	      3.51131746	    -11.05695801	      0.00000000	    -13.74807982	     -6.61068960	      3.31224141	      0.00000000	      0.00000000	      0.00000000	      0.00000000	      0.00000000	      0.00000000	      0.00000000	      0.00000000
      7.06000000	     -5.53410828	      3.97968834	     89.88513585	     -0.00958897	      1.00689224	     -0.17334951	     22.34419185	     -5.77485632	     -6.03933630	    -30.99323414	      0.57980859	     -8.57494193	      0.00000000	      0.68005550	      8.51014974	     -3.31762024	    -11.92318583	      3.86940776	    -10.71339746	      0.00000000	    -13.99161744	     -6.32142441	      3.15759250	      0.00000000	      0.00000000	      0.00000000	      0.00000000	      0.00000000	      0.00000000	      0.00000000	      0.00000000
      7.07000000	     -5.63550443	      4.06356803	     90.00000018	     -0.00933583	      1.00701700	     -0.18033511	     21.66003082	     -5.80936795	     -6.66460773	    -27.37406975	      0.34238335	     -7.66815145	      0.00000000	     -0.06825423	      8.58958768	     -3.27606372	    -11.54895823	      4.32731580	    -10.31338807	      0.00000000	    -14.15487798	     -6.38978309	      2.81411879	      0.00000000	      0.00000000	      0.00000000	      0.00000000	      0.00000000	      0.00000000	      0.00000000	      0.00000000
      7.08000000	     -6.02864591	      3.69804716	     90.00000018	     -0.00850697	      1.00598210	     -0.18704246	     21.66393977	     -6.02113182	     -6.82266816	    -24.22201752	      0.16307308	     -7.31959084	      0.00000000	     -0.17602067	      8.95570806	     -3.37858000	    -11.40469400	      4.51481405	    -10.32722209	      0.00000000	    -13.82580092	     -6.88569260	      2.91703123	      0.00000000	      0.00000000	      0.00000000	      0.00000000	      0.00000000	      0.00000000	      0.00000000	      0.00000000
      7.09000000	     -5.91006620	      3.40021257	     89.95769147	     -0.00777980	      1.00529383	     -0.19437975	     21.32301415	     -5.68748207	     -7.09767076	    -20.93374168	     -0.31497201	     -6.54827699	      0.00000000	     -0.44475617	      8.77861892	     -3.35734985	    -11.18687906	      4.62500680	    -10.05103281	      0.00000000	    -13.46702759	     -6.72833613	      2.81953759	      0.00000000	      0.00000000	      0.00000000	      0.00000000	      0.00000000	      0.00000000	      0.00000000	      0.00000000
